<svg width="90" height="91" viewBox="0 0 90 91" fill="none" xmlns="http://www.w3.org/2000/svg">
<circle cx="45" cy="45.5" r="45" fill="#FDF2D0"/>
<g clip-path="url(#clip0_356_3005)">
<path d="M26.6515 27.8052C24.9715 28.5518 23.8749 30.2318 23.8749 32.0752V43.0418C23.8749 55.9918 32.8349 68.1018 44.8749 71.0418C56.9149 68.1018 65.8749 55.9918 65.8749 43.0418V32.0752C65.8749 30.2318 64.7782 28.5518 63.0982 27.8052L46.7649 20.5485C45.5515 20.0118 44.1749 20.0118 42.9849 20.5485L26.6515 27.8052Z" fill="#EA8804"/>
<g clip-path="url(#clip1_356_3005)">
<path d="M55.3633 52.3629L49.5999 46.5996L47.1266 49.0729L52.8899 54.8363C53.5783 55.5246 54.6866 55.5246 55.3633 54.8363C56.0399 54.1479 56.0399 53.0396 55.3633 52.3629Z" fill="#FDF2D0"/>
<path d="M51.4666 43.0414C53.7183 43.0414 55.5499 41.2097 55.5499 38.958C55.5499 38.2814 55.3633 37.6514 55.0716 37.0914L51.9216 40.2414L50.1833 38.503L53.3333 35.353C52.7733 35.0614 52.1433 34.8747 51.4666 34.8747C49.2149 34.8747 47.3833 36.7064 47.3833 38.958C47.3833 39.4364 47.4766 39.8914 47.6283 40.3114L45.4699 42.4697L43.3933 40.393C43.8483 39.938 43.8483 39.203 43.3933 38.748L42.5649 37.9197L45.0383 35.4464C43.6733 34.0814 41.4566 34.0814 40.0916 35.4464L36.8016 38.748C36.3466 39.203 36.3466 39.938 36.8016 40.393L37.6299 41.2214H34.6666C34.4449 41.2214 34.2349 41.303 34.0833 41.4664C33.7566 41.793 33.7566 42.3064 34.0833 42.633L37.0466 45.5964C37.3733 45.923 37.8866 45.923 38.2133 45.5964C38.3649 45.4447 38.4583 45.2347 38.4583 45.013V42.0497L39.2749 42.8664C39.7299 43.3214 40.4649 43.3214 40.9199 42.8664L42.9966 44.943L35.5883 52.3514C34.8999 53.0397 34.8999 54.148 35.5883 54.8247C36.2766 55.513 37.3849 55.513 38.0616 54.8247L50.1016 42.7964C50.5333 42.948 50.9883 43.0414 51.4666 43.0414Z" fill="#FDF2D0"/>
</g>
</g>
<defs>
<clipPath id="clip0_356_3005">
<rect width="56" height="56" fill="white" transform="translate(16.875 17.3752)"/>
</clipPath>
<clipPath id="clip1_356_3005">
<rect width="28" height="28" fill="white" transform="translate(30.875 31.3748)"/>
</clipPath>
</defs>
</svg>
